<?xml version="1.0" encoding="UTF-8" standalone="no"?>
<!-- Created with Inkscape (http://www.inkscape.org/) -->

<svg
   width="157.78752mm"
   height="32.907921mm"
   viewBox="0 0 157.78752 32.907921"
   version="1.1"
   id="svg1"
   xml:space="preserve"
   inkscape:version="1.3.1 (9b9bdc1480, 2023-11-25, custom)"
   sodipodi:docname="OpenGig.svg"
   xmlns:inkscape="http://www.inkscape.org/namespaces/inkscape"
   xmlns:sodipodi="http://sodipodi.sourceforge.net/DTD/sodipodi-0.dtd"
   xmlns="http://www.w3.org/2000/svg"
   xmlns:svg="http://www.w3.org/2000/svg"><sodipodi:namedview
     id="namedview1"
     pagecolor="#ffffff"
     bordercolor="#000000"
     borderopacity="0.25"
     inkscape:showpageshadow="2"
     inkscape:pageopacity="0.0"
     inkscape:pagecheckerboard="0"
     inkscape:deskcolor="#d1d1d1"
     inkscape:document-units="mm"
     inkscape:zoom="2"
     inkscape:cx="344"
     inkscape:cy="55"
     inkscape:window-width="2560"
     inkscape:window-height="1371"
     inkscape:window-x="3640"
     inkscape:window-y="512"
     inkscape:window-maximized="0"
     inkscape:current-layer="g27" /><defs
     id="defs1"><inkscape:path-effect
       effect="simplify"
       id="path-effect13"
       is_visible="true"
       lpeversion="1.3"
       threshold="20.008"
       steps="13.312821"
       smooth_angles="360"
       helper_size="9.5384615"
       simplify_individual_paths="false"
       simplify_just_coalesce="false" /><rect
       x="112.84247"
       y="518.14679"
       width="499.81891"
       height="135.61266"
       id="rect1" /></defs><g
     inkscape:label="Layer 1"
     inkscape:groupmode="layer"
     id="layer1"
     transform="translate(-31.711109,-135.24388)"><g
       id="g27"
       inkscape:export-filename="OpenGig.svg"
       inkscape:export-xdpi="96"
       inkscape:export-ydpi="96"><path
         style="font-weight:bold;font-size:74.6667px;font-family:'IBM Plex Sans';-inkscape-font-specification:'IBM Plex Sans Bold';letter-spacing:-4.14802px;word-spacing:0px;white-space:pre;display:inline;fill:#00FA53"
         d="m 139.49781,586.61585 q -5.152,0 -9.408,-1.71733 -4.25601,-1.71734 -7.24268,-5.07734 -2.98666,-3.43467 -4.62933,-8.43734 -1.64267,-5.07733 -1.64267,-11.72267 0,-6.64534 1.64267,-11.648 1.64267,-5.07734 4.62933,-8.43734 2.98667,-3.43467 7.24268,-5.152 4.256,-1.71734 9.408,-1.71734 5.152,0 9.408,1.71734 4.25601,1.71733 7.24267,5.152 2.98667,3.36 4.62934,8.43734 1.64267,5.00266 1.64267,11.648 0,6.64534 -1.64267,11.72267 -1.64267,5.00267 -4.62934,8.43734 -2.98666,3.36 -7.24267,5.07734 -4.256,1.71733 -9.408,1.71733 z m 0,-10.08 q 5.152,0 7.98934,-3.36001 2.912,-3.36 2.912,-9.632 v -7.76534 q 0,-6.272 -2.912,-9.632 -2.83734,-3.36 -7.98934,-3.36 -5.152,0 -8.064,3.36 -2.83734,3.36 -2.83734,9.632 v 7.76534 q 0,6.272 2.83734,9.632 2.912,3.36001 8.064,3.36001 z m 27.65991,-30.01602 h 11.05067 v 6.57067 h 0.37333 q 0.82134,-3.28533 3.73334,-5.376 2.98667,-2.09067 6.79467,-2.09067 7.46667,0 11.27467,5.22667 3.808,5.22667 3.808,15.23201 0,10.00534 -3.808,15.30667 -3.808,5.22667 -11.27467,5.22667 -1.94134,0 -3.65867,-0.59733 -1.71734,-0.52267 -3.136,-1.49334 -1.344,-1.04533 -2.31467,-2.38933 -0.97067,-1.41867 -1.41867,-2.98667 h -0.37333 v 21.50401 h -11.05067 z m 18.29334,31.13602 q 3.136,0 5.152,-2.16534 2.09067,-2.24 2.09067,-5.97333 v -6.79467 q 0,-3.73334 -2.09067,-5.89867 -2.016,-2.24 -5.152,-2.24 -3.136,0 -5.22667,1.568 -2.016,1.49333 -2.016,4.18133 v 11.57334 q 0,2.688 2.016,4.256 2.09067,1.49334 5.22667,1.49334 z m 39.30799,8.96 q -4.48001,0 -7.98934,-1.41867 -3.50934,-1.49333 -5.97334,-4.10667 -2.38933,-2.688 -3.65867,-6.496 -1.19466,-3.808 -1.19466,-8.512 0,-4.62934 1.19466,-8.36267 1.19467,-3.80801 3.50934,-6.49601 2.38933,-2.688 5.824,-4.10667 3.43467,-1.49333 7.84001,-1.49333 4.85333,0 8.288,1.64267 3.50933,1.64267 5.67467,4.40533 2.24,2.76267 3.21067,6.42134 1.04533,3.584 1.04533,7.54134 v 3.28533 h -25.16268 v 0.59734 q 0,3.88266 2.09067,6.19733 2.09067,2.24 6.57067,2.24 3.43467,0 5.6,-1.344 2.16534,-1.41867 4.032,-3.36 l 5.52534,6.86934 q -2.61333,3.06133 -6.86934,4.77867 -4.18133,1.71733 -9.55733,1.71733 z m -0.224,-32.85335 q -3.36001,0 -5.30134,2.24 -1.86667,2.16534 -1.86667,5.82401 v 0.59733 h 13.73868 v -0.672 q 0,-3.584 -1.64267,-5.74934 -1.568,-2.24 -4.928,-2.24 z m 21.68653,31.95735 v -39.20002 h 11.05067 v 6.64534 h 0.448 q 1.04534,-3.06134 3.65867,-5.30134 2.61334,-2.24 7.24267,-2.24 6.04801,0 9.10934,4.032 3.136,4.032 3.136,11.49867 v 24.56535 h -11.05067 v -23.66934 q 0,-3.80801 -1.19467,-5.60001 -1.19466,-1.86666 -4.256,-1.86666 -1.344,0 -2.61333,0.37333 -1.26934,0.29867 -2.31467,1.04533 -0.97067,0.74667 -1.568,1.86667 -0.59734,1.04533 -0.59734,2.464 v 25.38668 z m 74.02793,-8.288 h -0.37334 q -0.59733,3.95733 -4.032,6.57067 -3.43467,2.61333 -9.33334,2.61333 -4.48,0 -8.36267,-1.71733 -3.88267,-1.71734 -6.79467,-5.07734 -2.912,-3.36 -4.55467,-8.36267 -1.64266,-5.00267 -1.64266,-11.57334 0,-6.57067 1.71733,-11.648 1.71733,-5.07734 4.77867,-8.51201 3.136,-3.43467 7.46667,-5.22667 4.33067,-1.792 9.632,-1.792 7.01867,0 12.09601,3.06134 5.07734,2.98666 7.98934,9.03467 l -9.25867,5.30133 q -1.19467,-3.06133 -3.73334,-5.152 -2.53867,-2.16533 -7.09334,-2.16533 -5.30133,0 -8.43733,3.06133 -3.136,3.06134 -3.136,9.63201 v 8.36267 q 0,6.496 3.136,9.632 3.136,3.06134 8.43733,3.06134 2.09067,0 3.95734,-0.448 1.86667,-0.52267 3.28533,-1.49334 1.41867,-1.04533 2.16534,-2.464 0.82133,-1.41867 0.82133,-3.36 v -2.61334 h -9.70667 v -9.48267 h 20.53334 v 29.04535 h -9.55733 z m 21.38797,-35.09335 q -3.36,0 -4.928,-1.49334 -1.49333,-1.568 -1.49333,-3.95733 v -1.64267 q 0,-2.38934 1.49333,-3.88267 1.568,-1.568 4.928,-1.568 3.36,0 4.85334,1.568 1.568,1.49333 1.568,3.88267 v 1.64267 q 0,2.38933 -1.568,3.95733 -1.49334,1.49334 -4.85334,1.49334 z m -5.52533,4.18133 h 11.05067 v 39.20002 h -11.05067 z m 53.49462,42.03735 q 0,3.13601 -1.12,5.52534 -1.04534,2.38934 -3.50934,4.032 -2.464,1.71734 -6.57067,2.53867 -4.032,0.896 -10.00534,0.896 -5.07733,0 -8.66133,-0.672 -3.50934,-0.59733 -5.74934,-1.792 -2.16533,-1.12 -3.21067,-2.83734 -0.97066,-1.64266 -0.97066,-3.808 0,-3.28533 1.94133,-5.152 1.94133,-1.86667 5.376,-2.31467 v -0.82133 q -2.83733,-0.52267 -4.256,-2.38934 -1.41867,-1.94133 -1.41867,-4.48 0,-1.568 0.59734,-2.688 0.672,-1.19467 1.64266,-2.016 1.04534,-0.896 2.38934,-1.41867 1.344,-0.52266 2.688,-0.82133 v -0.29867 q -3.584,-1.64266 -5.30134,-4.48 -1.71733,-2.912 -1.71733,-6.72 0,-5.97334 4.10667,-9.55734 4.18133,-3.65867 12.69334,-3.65867 3.88267,0 6.64533,0.74667 v -1.49334 q 0,-3.136 1.49334,-4.48 1.568,-1.41867 4.40533,-1.41867 h 6.19734 v 8.21334 h -8.66134 v 0.448 q 3.43467,1.64267 5.07734,4.55467 1.64267,2.83734 1.64267,6.64534 0,5.89867 -4.18134,9.48267 -4.10667,3.50933 -12.61867,3.50933 -3.808,0 -6.94401,-0.82133 -1.71733,1.12 -1.71733,3.136 0,1.41867 1.04533,2.24 1.12,0.74667 3.65867,0.74667 h 11.34934 q 7.168,0 10.37867,2.98667 3.28534,2.98667 3.28534,8.43733 z m -10.37867,1.49334 q 0,-1.71734 -1.344,-2.61334 -1.34401,-0.896 -4.70401,-0.896 h -13.44 q -0.74667,0.74667 -1.12,1.64267 -0.29867,0.97067 -0.29867,1.86667 0,2.16533 1.86667,3.136 1.86666,1.04533 6.34667,1.04533 h 4.48 q 4.48,0 6.34667,-1.04533 1.86667,-0.97067 1.86667,-3.136 z m -10.67734,-25.46135 q 3.28533,0 4.85333,-1.344 1.64267,-1.41866 1.64267,-4.032 v -0.896 q 0,-2.61333 -1.64267,-3.95734 -1.568,-1.41866 -4.85333,-1.41866 -3.28534,0 -4.928,1.41866 -1.56801,1.34401 -1.56801,3.95734 v 0.896 q 0,2.61334 1.56801,4.032 1.64266,1.344 4.928,1.344 z"
         id="text1"
         transform="matrix(0.45861693,0,0,0.45861693,-21.75222,-107.72884)"
         aria-label="OpenGig"
         inkscape:label="text1" /><g
         id="g26"
         transform="matrix(1.0294116,0,0,1.0294116,-7.4903449,-4.9425093)"><circle
           style="fill:#00FA53;fill-opacity:1;stroke-width:0.258395"
           id="circle26"
           cx="175.46284"
           cy="152.14838"
           r="15.89791" /><path
           id="path3"
           style="fill:#1E8EFF;fill-opacity:0.8392157;stroke-width:0.25840004;stroke-dasharray:none;fill-rule:nonzero"
           d="m 175.46267,136.2506 a 15.89791,15.89791 0 0 0 -4.03799,0.54777 c -0.0673,0.44175 0.16104,0.84724 0.59324,0.89245 0.49084,0.0513 1.10974,-0.045 1.34152,0.51005 0.23946,0.57337 0.0429,1.18008 -0.28008,1.64796 -0.32078,0.46461 -0.0676,1.05031 0.22169,1.45624 0.30014,0.42117 0.33786,1.12398 -0.0718,1.53634 -0.32177,0.32387 -0.89091,0.27501 -1.20354,0.61133 -0.74979,0.8066 -2.07806,0.7037 -2.85513,1.51205 -0.40801,0.42445 -0.72108,0.95447 -1.23506,1.26763 -0.51105,0.31136 -0.56019,0.947 -0.64854,1.47278 -0.0713,0.42429 -0.43188,0.0993 -0.37983,-0.18242 0.10931,-0.59156 -0.64841,-0.74204 -1.11517,-0.79479 -0.89646,-0.1013 -1.7539,0.36578 -2.01073,1.17099 -0.17929,0.56211 0.096,1.2288 0.68264,1.28054 0.49648,0.0438 0.58978,0.68731 0.68058,1.10846 0.17957,0.83284 0.74454,1.48053 1.40922,1.94666 0.49231,0.34524 1.0244,0.0813 1.53014,0.076 0.79726,-0.008 1.61624,0.20324 2.29753,0.66404 0.67936,0.45949 1.42397,0.70933 2.12442,1.08314 0.63472,0.33873 0.93479,0.97628 1.34462,1.50637 0.35998,0.46561 1.0186,0.54797 1.55443,0.73949 0.68302,0.24412 1.49145,0.42045 1.91616,1.06918 0.31216,0.47682 0.0811,1.03441 -0.20309,1.44746 -0.49974,0.72632 -0.44957,1.79656 -1.18804,2.3797 -0.69742,0.55073 -1.5912,0.89072 -2.09186,1.65054 -0.36649,0.5562 -0.99345,0.7502 -1.50379,1.09555 -0.57988,0.39241 -1.06372,0.96257 -1.36374,1.60972 -0.14665,0.31633 -0.24007,0.983 -0.72398,0.75912 -0.53589,-0.24792 -0.69309,-0.97116 -0.86507,-1.54099 -0.2131,-0.70609 -0.49169,-1.35834 -0.68523,-2.05517 -0.21602,-0.77781 0.015,-1.64799 -0.31109,-2.41071 -0.31013,-0.72534 -0.96967,-1.13455 -1.47536,-1.67845 -0.58086,-0.62475 -0.95615,-1.46234 -1.09192,-2.3213 -0.0868,-0.54916 0.0417,-1.09634 0.31987,-1.5658 0.22964,-0.38759 0.43351,-0.80139 0.43357,-1.26349 6e-5,-0.47888 0.0796,-1.11005 -0.43202,-1.35133 -0.39137,-0.18457 -0.7959,-0.36844 -1.05265,-0.73639 -0.30187,-0.43263 -0.71233,-0.7723 -1.11776,-1.10795 -0.27997,-0.23178 -0.6214,-0.39702 -0.81752,-0.7152 -0.28596,-0.46394 -0.62075,-0.92739 -0.71675,-1.47536 -0.25016,-1.42786 0.5189,-2.77177 0.64234,-4.17701 0.0486,-0.55316 -0.0636,-1.10356 -0.0264,-1.64744 a 15.89791,15.89791 0 0 0 -3.48557,9.88002 15.89791,15.89791 0 0 0 15.89773,15.89773 15.89791,15.89791 0 0 0 11.88248,-5.35471 c -0.05,-0.0625 -0.0944,-0.13051 -0.12919,-0.20722 -0.36534,-0.80497 0.30043,-1.62961 0.27906,-2.4629 -0.0225,-0.87714 0.41642,-1.62455 0.67179,-2.41794 0.31368,-0.97455 0.005,-1.97801 -0.26045,-2.91507 -0.13426,-0.47312 -0.27273,-1.06627 -0.82734,-1.15807 -0.58494,-0.0968 -1.09677,0.34446 -1.64331,0.51005 -0.58249,0.17648 -1.20228,0.0799 -1.69654,-0.24495 -0.73121,-0.48066 -1.35495,-1.20511 -1.42833,-2.09806 -0.0481,-0.58516 -0.0655,-1.17124 -0.0972,-1.757 -0.054,-0.99821 0.5042,-1.85338 0.87592,-2.73058 0.19066,-0.44993 0.40377,-0.99974 0.16226,-1.47433 -0.23209,-0.4561 -0.79873,-0.82018 -0.66869,-1.39681 0.10719,-0.47531 0.53441,-1.01944 0.13074,-1.4702 -0.23957,-0.26751 -0.59672,-0.62897 -0.36845,-1.01131 0.21623,-0.36218 0.53339,-0.81764 0.27957,-1.24798 -0.30322,-0.51409 -1.04714,-0.62075 -1.38803,-1.1312 -0.32013,-0.47935 0.0416,-1.00459 -0.0672,-1.49965 -0.0669,-0.30449 -0.25831,-0.56148 -0.43357,-0.82579 a 15.89791,15.89791 0 0 0 -5.27358,-0.90175 z m 0.15865,0.67386 c 0.56776,0.0705 1.16006,0.14273 1.66037,0.44287 0.50652,0.30386 0.69095,0.9426 0.45578,1.44332 -0.32569,0.69345 -1.00561,0.99814 -1.43092,1.56683 -0.33803,0.45198 -0.91668,0.70656 -1.37459,0.41703 -0.58404,-0.36929 -0.50247,-1.1981 -0.57929,-1.8278 -0.0662,-0.54288 -0.23898,-1.04444 -0.11369,-1.57665 0.12246,-0.52021 0.90369,-0.40059 1.38234,-0.4656 z m -4.9413,2.51251 c -0.0595,0.007 -0.11923,0.026 -0.17777,0.0605 -0.0354,0.009 -0.0705,0.0192 -0.10593,0.0284 -0.55289,0.1437 -0.88131,0.7743 -0.5147,1.18597 0.39638,0.4451 1.01868,-0.002 1.30793,-0.36948 0.29911,-0.38029 -0.0931,-0.95264 -0.50953,-0.90537 z m 14.29835,4.1553 c -0.29429,0.0307 -0.54108,0.26622 -0.67127,0.524 -0.24482,0.48472 0.0649,1.15171 0.59634,1.05678 0.53387,-0.0954 1.06479,-0.0793 1.45469,0.25942 0.45829,0.39816 1.12475,0.38185 1.58079,0.0584 0.42714,-0.30296 0.65553,-0.9434 0.17208,-1.19166 -0.91487,-0.46978 -2.03559,-0.34518 -3.00395,-0.70693 -0.0438,-0.005 -0.0866,-0.004 -0.12868,0 z" /></g></g></g></svg>
